Coordinates
version=1
nRows=11
nColumns=36
inDegrees=yes

Units are S.I. units (second, meters, Newtons, ...)
If the header above contains a line with 'inDegrees', this indicates whether rotational values are in degrees (yes) or radians (no).

endheader
time	pelvis_tilt	pelvis_list	pelvis_rotation	pelvis_tx	pelvis_ty	pelvis_tz	hip_flexion_r	hip_adduction_r	hip_rotation_r	knee_angle_r	knee_angle_r_beta	ankle_angle_r	subtalar_angle_r	mtp_angle_r	hip_flexion_l	hip_adduction_l	hip_rotation_l	knee_angle_l	knee_angle_l_beta	ankle_angle_l	subtalar_angle_l	mtp_angle_l	lumbar_extension	lumbar_bending	lumbar_rotation	arm_flex_r	arm_add_r	arm_rot_r	elbow_flex_r	pro_sup_r	arm_flex_l	arm_add_l	arm_rot_l	elbow_flex_l	pro_sup_l
      0.00000000	     -0.37502297	      2.77553837	      0.77616493	     -0.27725486	      1.20800751	     -0.11330121	     -4.68510019	     -2.54156550	      7.98131981	      0.66058173	      0.01152933	      6.03329785	    -23.15161157	     -5.05849753	     -2.19140726	      3.24569147	      5.66506970	      6.62300931	      0.11559332	      6.38113723	    -17.17992057	     -5.05849753	     -7.54811967	     -4.59506992	     -1.57570010	     -3.37009912	     -5.64629273	      9.13696019	     27.52225664	     76.69140799	     -3.31489134	     -9.25112923	     10.99121643	     32.25230143	     74.11996334
      0.01666670	     -1.53320578	      1.50022730	      0.46605154	     -0.27692015	      1.20537500	     -0.11396429	     -3.61348754	     -1.06444863	      8.95093727	      0.88930989	      0.01552139	      8.37054848	    -21.87252965	     -6.55810508	     -0.91952689	      2.46624005	      6.12610272	      6.60331012	      0.11524950	      6.53729471	    -17.17712211	     -6.55810508	     -5.62410805	     -2.70614702	     -1.44130951	     -4.06657054	     -4.95075292	      2.47971756	     28.25404293	     81.61343787	     -4.80065073	     -6.85639076	      3.12754097	     32.87855232	     78.91332584
      0.03333330	     -1.95604825	      1.86813244	      0.01004661	     -0.27740865	      1.20627898	     -0.11290696	     -3.30136686	     -1.62244502	      8.42747365	      0.71352050	      0.01245328	      9.50557959	    -20.38671206	     -6.81982293	     -0.44050102	      3.02810541	      5.78289980	      6.45198793	      0.11260843	      7.50191693	    -16.03054775	     -6.81982293	     -4.98760253	     -3.34359631	     -1.08058545	     -4.35983603	     -4.44740341	      0.67299399	     28.92695606	     78.19520290	     -5.29186091	     -6.69538702	      1.87936003	     33.50242444	     75.95614412
      0.05000000	     -1.48395788	      2.10669904	     -0.57936425	     -0.27858273	      1.20608250	     -0.11206804	     -3.75037255	     -2.01237143	      8.44245019	      0.59523435	      0.01038880	     10.11451861	    -19.40343461	     -7.09773793	     -1.35482652	      3.39741334	      5.67464913	      5.60445002	      0.09781611	      7.35371330	    -15.96863582	     -7.09773793	     -5.55734930	     -3.70873121	     -0.70678821	     -4.47704581	     -4.15847976	     -1.24683331	     30.05278926	     76.24249633	     -5.82758365	     -6.59054875	      0.68686061	     34.83280870	     74.53222686
      0.06666670	     -1.33702914	      2.07577105	     -1.01818837	     -0.27882786	      1.20077489	     -0.11139829	     -3.85380634	     -2.00540471	      8.60582843	      0.53800260	      0.00938992	     10.56503912	    -18.56683619	     -7.26611090	     -1.66029342	      3.46761419	      5.43018022	      5.32043226	      0.09285906	      8.04787561	    -15.26239552	     -7.26611090	     -5.67409333	     -3.77492705	     -0.16429299	     -4.80209593	     -3.79672698	     -4.44171327	     31.07009879	     85.83320186	     -6.15084244	     -6.11705028	     -2.23630220	     35.51386835	     84.58394831
      0.08333330	     -1.28887813	      2.03519995	     -1.30254313	     -0.27951039	      1.20316787	     -0.11102008	     -3.84247562	     -1.96097446	      8.68346573	      0.49419530	      0.00862534	     10.91282243	    -18.02338935	     -7.29783241	     -1.80255293	      3.46463271	      5.41930153	      5.00669729	      0.08738335	      8.24210629	    -14.84430428	     -7.29783241	     -5.62719227	     -3.80154525	      0.09376488	     -4.97001399	     -3.89924513	     -4.16843100	     31.25960496	     84.30826988	     -6.02570491	     -5.99105106	     -2.18000317	     35.62431229	     83.17921901
      0.10000000	     -1.31874632	      1.99283656	     -1.47742590	     -0.27946001	      1.19552238	     -0.11086790	     -3.75452060	     -1.91411247	      8.71177990	      0.47468947	      0.00828489	     11.41293334	    -17.49609307	     -7.33600960	     -1.68816369	      3.46100388	      5.36654229	      5.08156318	      0.08869001	      8.88341726	    -14.14301030	     -7.33600960	     -5.50743349	     -3.79274490	      0.30817484	     -5.30858971	     -4.04030636	     -3.74077239	     31.81582660	     81.82435920	     -6.02521269	     -5.92039999	     -2.14715119	     36.10940839	     80.83554852
      0.11666670	     -1.38672152	      1.95295005	     -1.67552451	     -0.28000575	      1.20070304	     -0.11065802	     -3.69300837	     -1.85381771	      8.86738649	      0.46120702	      0.00804958	     11.62968246	    -17.27798614	     -7.34065790	     -1.61135519	      3.41865112	      5.45258302	      5.04881215	      0.08811840	      8.90654577	    -13.99428743	     -7.34065790	     -5.27697806	     -3.78862679	      0.37984272	     -5.30318483	     -4.07398939	     -3.52013427	     31.72155102	     81.88036709	     -5.91214874	     -5.82209459	     -2.12082136	     35.98954996	     80.90352527
      0.13333330	     -1.76330826	      1.96655055	     -1.92237674	     -0.28606292	      1.19746810	     -0.10756806	     -3.08220738	     -1.78522133	      9.32756982	      0.47983033	      0.00837462	     11.61940430	    -17.74800314	     -7.35747050	     -0.96795563	      3.37903542	      5.31324099	      5.36818856	      0.09369257	      9.04751119	    -14.04424598	     -7.35747050	     -4.94068252	     -3.86258354	      0.80536235	     -5.21703282	     -4.22147548	     -2.83201824	     31.93005664	     81.37206190	     -5.69592536	     -5.93319011	     -2.11635377	     36.33538514	     80.47692263
      0.15000000	     -1.82139282	      1.98198483	     -2.12941324	     -0.28624684	      1.19743131	     -0.10749005	     -2.92887001	     -1.72389646	      9.52756892	      0.48418620	      0.00845064	     11.68687094	    -17.69261310	     -7.35798590	     -0.74233049	      3.32767262	      5.38044179	      5.45862902	      0.09527105	      9.02472081	    -14.05545979	     -7.35798590	     -4.88754300	     -3.91095511	      0.78667637	     -5.09532306	     -4.11335733	     -2.71059736	     31.99404916	     81.44163548	     -5.45021313	     -5.96134940	     -2.12092698	     36.50733197	     80.55241279
      0.16666670	     -2.26618126	      1.99304245	     -2.38334849	     -0.28620744	      1.20497442	     -0.10720538	     -2.32281896	     -1.64496153	      9.91670970	      0.51532709	      0.00899415	     11.67855088	    -17.90223170	     -7.39945307	     -0.10010236	      3.26084156	      5.39985126	      5.57287272	      0.09726498	      8.74041285	    -14.23779455	     -7.39945307	     -4.31801296	     -3.93698222	      0.70370999	     -4.76330686	     -4.40114762	     -0.42875590	     31.59753677	     82.00997058	     -5.90944645	     -5.83303291	     -2.60577753	     36.97168809	     81.64737323
